# 立方体顶点数据
v -1.0 -1.0  1.0  # 1
v  1.0 -1.0  1.0  # 2
v  1.0  1.0  1.0  # 3
v -1.0  1.0  1.0  # 4
v -1.0 -1.0 -1.0  # 5
v  1.0 -1.0 -1.0  # 6
v  1.0  1.0 -1.0  # 7
v -1.0  1.0 -1.0  # 8

# 纹理坐标（每个面独立）
vt 0.0 0.0  # 左下
vt 1.0 0.0  # 右下
vt 1.0 1.0  # 右上
vt 0.0 1.0  # 左上

# 法线（每个面一个）
vn  0.0  0.0  1.0  # 前
vn  0.0  0.0 -1.0  # 后
vn  0.0  1.0  0.0  # 上
vn  0.0 -1.0  0.0  # 下
vn  1.0  0.0  0.0  # 右
vn -1.0  0.0  0.0  # 左

# 面数据（全部逆时针）
# 前面
f 1/1/1 2/2/1 3/3/1
f 3/3/1 4/4/1 1/1/1

# 后面
f 5/1/2 8/4/2 7/3/2
f 7/3/2 6/2/2 5/1/2

# 上面
f 4/1/3 3/2/3 7/3/3
f 7/3/3 8/4/3 4/1/3

# 下面
f 1/1/4 5/2/4 6/3/4
f 6/3/4 2/4/4 1/1/4

# 右面
f 2/1/5 6/2/5 7/3/5
f 7/3/5 3/4/5 2/1/5

# 左面
f 1/1/6 4/2/6 8/3/6
f 8/3/6 5/4/6 1/1/6
